<svg xmlns="http://www.w3.org/2000/svg" viewBox="0 0 860.76 499.79"><defs><style>.cls-1{fill:#023e5e;}.cls-2{fill:#ccf4ff;}.cls-3,.cls-5{fill:#0079af;}.cls-4{fill:#72adcc;}.cls-5,.cls-7{font-size:48px;font-family:Times-Bold, Times;font-weight:700;}.cls-6{letter-spacing:-0.02em;}.cls-7{fill:#fff;}</style></defs><g id="Layer_1" data-name="Layer 1"><path class="cls-1" d="M1099.85,667,240,665V167.21h860.76Z" transform="translate(-240.01 -167.21)"/><path class="cls-2" d="M240,472.79a183.49,183.49,0,0,1,17.75-10.24C354,413.93,453.22,471.31,617.09,524c147.25,47.36,222.7,70.63,312,50.37,79.16-18,137.43-61,171.71-92.62L1099.85,667H240Z" transform="translate(-240.01 -167.21)"/><path class="cls-3" d="M240,505a196.66,196.66,0,0,1,17.75-8.54c96.26-40.55,195.46,7.3,359.33,51.26,147.25,39.51,222.7,58.91,312,42,79.16-15,137.43-50.91,171.71-77.25L1099.85,667H240Z" transform="translate(-240.01 -167.21)"/></g><g id="microphone"><path class="cls-4" d="M297.28,381.23l-3-10.28a1.14,1.14,0,0,0-1.39-.78L282.34,374a1.15,1.15,0,0,0-.79,1.39l4.05,14a1.13,1.13,0,0,0,2.17-.6l-4-14-.78,1.38,10.59-3.83-1.38-.79,3,10.28a1.13,1.13,0,0,0,2.17-.6Z" transform="translate(-240.01 -167.21)"/><ellipse class="cls-4" cx="47.42" cy="221.65" rx="1.79" ry="2"/><ellipse class="cls-4" cx="56.94" cy="213.97" rx="1.79" ry="2"/><path class="cls-4" d="M1010,445.93l3-10.28-1.38.79,10.59,3.83-.79-1.38-4,14a1.13,1.13,0,0,0,2.17.6l4.05-14a1.16,1.16,0,0,0-.78-1.39l-10.6-3.83a1.14,1.14,0,0,0-1.38.78l-3,10.28a1.13,1.13,0,0,0,2.17.6Z" transform="translate(-240.01 -167.21)"/><ellipse class="cls-4" cx="777.71" cy="285.76" rx="1.79" ry="2"/><ellipse class="cls-4" cx="768.2" cy="278.07" rx="1.79" ry="2"/><path class="cls-4" d="M583.09,203.32l2.77-9.58-1.39.79,9.87,3.57-.78-1.38-3.78,13.08a1.13,1.13,0,0,0,2.17.6l3.78-13.08a1.16,1.16,0,0,0-.79-1.39l-9.87-3.57a1.14,1.14,0,0,0-1.38.79l-2.77,9.57a1.13,1.13,0,0,0,2.17.6Z" transform="translate(-240.01 -167.21)"/><ellipse class="cls-4" cx="350.17" cy="42.64" rx="1.66" ry="1.86"/><ellipse class="cls-4" cx="341.31" cy="35.49" rx="1.66" ry="1.86"/><path class="cls-4" d="M277.68,205l4.77-1.69-1.38-1.39-2.24,11.19-.32,1.61c-.28,1.41,1.89,2,2.17.6l2.23-11.18.32-1.62c.16-.77-.51-1.69-1.38-1.38l-4.76,1.69c-1.36.49-.77,2.66.59,2.17Z" transform="translate(-240.01 -167.21)"/><ellipse class="cls-4" cx="40.6" cy="48.05" rx="2.03" ry="2.27"/><path class="cls-4" d="M736,509.9l-3.82-3.62a1.14,1.14,0,0,0-1.88.5l-1.78,11.31-.26,1.6a1.16,1.16,0,0,0,.79,1.38,1.13,1.13,0,0,0,1.38-.78L732.26,509l.25-1.6-1.88.49,3.82,3.62c1,1,2.64-.59,1.59-1.59Z" transform="translate(-240.01 -167.21)"/><ellipse class="cls-4" cx="488.35" cy="352.61" rx="2.03" ry="2.27"/><path class="cls-4" d="M908,508.92l3.39,1.4-.78-1.38-.87,4.72a1.16,1.16,0,0,0,.78,1.38l1.67.63a1.14,1.14,0,0,0,1.39-.79,1.16,1.16,0,0,0-.79-1.38l-1.67-.63.79,1.39.87-4.72a1.17,1.17,0,0,0-.79-1.39l-3.39-1.4a1.13,1.13,0,1,0-.6,2.17Z" transform="translate(-240.01 -167.21)"/><path class="cls-4" d="M1014.49,221.18l2.1,3.3.18-1.36-3.1,3.34a1.17,1.17,0,0,0-.18,1.37l1.06,1.57a1.16,1.16,0,0,0,1.54.4,1.14,1.14,0,0,0,.41-1.54l-1.07-1.57-.17,1.36,3.1-3.34a1.13,1.13,0,0,0,.17-1.36l-2.09-3.31a1.13,1.13,0,0,0-2,1.14Z" transform="translate(-240.01 -167.21)"/><path class="cls-4" d="M440.42,195.09l1,3.89.52-1.27-3.91,2a1.14,1.14,0,0,0-.52,1.27l.55,1.87a1.13,1.13,0,0,0,2.17-.6l-.55-1.87-.51,1.27,3.9-2a1.15,1.15,0,0,0,.52-1.27l-1-3.89a1.13,1.13,0,1,0-2.17.6Z" transform="translate(-240.01 -167.21)"/><path class="cls-4" d="M576.44,433.77l2.76,1.05-.78-1.39-.62,3.83a1.16,1.16,0,0,0,.79,1.38l1.36.47a1.13,1.13,0,0,0,1.38-.79,1.15,1.15,0,0,0-.79-1.38l-1.35-.47.78,1.39.62-3.83a1.17,1.17,0,0,0-.79-1.38l-2.76-1a1.14,1.14,0,0,0-1.39.79,1.16,1.16,0,0,0,.79,1.38Z" transform="translate(-240.01 -167.21)"/><path class="cls-4" d="M437.71,429.41c.29,1.35.54,2.71.86,4v.05a1.13,1.13,0,0,0,1.88.49l2.35-2.77.33-.4a1.17,1.17,0,0,0,.33-.79,1.13,1.13,0,0,0-1.92-.8L439.2,432l-.33.39,1.88.5-.41-1.94-.46-2.16a1.13,1.13,0,0,0-1.38-.79,1.16,1.16,0,0,0-.79,1.39Z" transform="translate(-240.01 -167.21)"/><path class="cls-4" d="M1057.65,341.75c.76,1.1,1.51,2.2,2.27,3.29l0,0a1.13,1.13,0,0,0,2.06-.27l1.11-3.6.16-.52a1.12,1.12,0,0,0-.78-1.38,1.15,1.15,0,0,0-1.39.78L1060,343.7l-.16.51,2.05-.26-1.08-1.57-1.22-1.77a1.13,1.13,0,0,0-1.94,1.14Z" transform="translate(-240.01 -167.21)"/><text class="cls-5" transform="translate(81.29 131.44)">SING<tspan class="cls-6" x="117.38" y="0"> </tspan><tspan x="128.53" y="0">WITH</tspan><tspan x="93.62" y="57.6">ME</tspan></text><text class="cls-7" transform="translate(79.29 130.44)">SING<tspan class="cls-6" x="117.38" y="0"> </tspan><tspan x="128.53" y="0">WITH</tspan><tspan x="93.62" y="57.6">ME</tspan></text></g></svg>